<svg xmlns="http://www.w3.org/2000/svg" viewBox="0 0 116.45 103.26"><defs><style>.cls-1{fill:#fff;}.cls-2{opacity:0.1;}.cls-3{fill:#ff1212;}.cls-4{font-size:27px;fill:red;font-family:Tahoma-Bold, Tahoma;font-weight:700;}</style></defs><title>yt_ff_icon_2-1</title><g id="Layer_2" data-name="Layer 2"><g id="Layer_2-2" data-name="Layer 2"><path class="cls-1" d="M22.66,82l68.57-2.89.65-37.83-10.14-8,21.33-10.61,13.38,10.45V14.47A14.46,14.46,0,0,0,102,0H14.47A14.47,14.47,0,0,0,0,14.47V88.8a14.46,14.46,0,0,0,14.47,14.46H50.05L26.23,84.74Z"/><path class="cls-1" d="M116.45,88.8V33.08L103.07,22.63,81.74,33.24l10.14,8-.65,37.83L22.66,82l3.57,2.77,23.82,18.52H102A14.45,14.45,0,0,0,116.45,88.8Z"/><path class="cls-2" d="M116.45,88.8V33.08L103.07,22.63,81.74,33.24l10.14,8-.65,37.83L22.66,82l3.57,2.77,23.82,18.52H102A14.45,14.45,0,0,0,116.45,88.8Z"/><polygon class="cls-3" points="22.42 20.14 28.4 20.14 28.4 64.89 22.42 67.76 22.42 20.14"/><path class="cls-3" d="M27.91,20.63v44l-5,2.41V20.63h5m1-1h-7V68.54l1.41-.67,5-2.4.55-.27V19.65Z"/><rect class="cls-3" x="23.23" y="20.13" width="60" height="5"/><path class="cls-3" d="M82.73,20.63v4h-59v-4h59m1-1h-61v6h61v-6Z"/><polygon class="cls-3" points="82.23 12.72 102.04 22.63 82.23 32.53 82.23 12.72"/><path class="cls-3" d="M82.73,13.53l18.19,9.1L82.73,31.72V13.53m-1-1.62V33.34l1.44-.72,18.2-9.1,1.79-.89-1.79-.9-18.2-9.1-1.44-.72Z"/><polygon class="cls-3" points="88.24 83.12 88.24 38.29 94.22 35.48 94.22 83.12 88.24 83.12"/><path class="cls-3" d="M93.73,36.25V82.63h-5v-44l5-2.35m1-1.54-1.39.66-5,2.35-.56.26V83.61h7V34.71Z"/><rect class="cls-3" x="34.23" y="78.13" width="60" height="5"/><path class="cls-3" d="M93.73,78.63v4h-59v-4h59m1-1h-61v6h61v-6Z"/><polygon class="cls-3" points="14.41 80.64 34.23 70.73 34.23 90.55 14.41 80.64"/><path class="cls-3" d="M33.73,71.54v18.2l-18.2-9.1,18.2-9.1m1-1.62-1.45.73-18.2,9.09-1.79.9,1.79.89,18.2,9.1,1.45.73V69.92Z"/><text class="cls-4" transform="translate(36.82 61.77)">2.4</text></g></g></svg>