<svg xmlns="http://www.w3.org/2000/svg" viewBox="0 0 116.45 103.26"><defs><style>.cls-1{fill:#fff;}.cls-2{fill:#ff1212;}</style></defs><title>yt_ff_icon</title><g id="Layer_2" data-name="Layer 2"><g id="Layer_2-2" data-name="Layer 2"><rect class="cls-1" width="116.45" height="103.26" rx="14.47"/><polygon class="cls-2" points="45.23 69.85 45.23 41.95 40.23 44.86 40.23 39.22 45.1 35.85 50.23 35.85 50.23 69.85 45.23 69.85"/><path class="cls-2" d="M49.73,36.35v33h-4V41.08l-5,2.91v-4.5l4.53-3.14h4.47m1-1H45l-.26.18-4.53,3.13-.43.3v6.77l1.5-.87,3.5-2V70.35h6v-35Z"/><path class="cls-2" d="M67.23,70.44c-3.24,0-5.75-.89-7.45-2.64a10.15,10.15,0,0,1-2.55-7.31V45.36A10,10,0,0,1,59.8,38c1.7-1.75,4.2-2.64,7.43-2.64S73,36.29,74.67,38a10.06,10.06,0,0,1,2.56,7.33V60.49a10.11,10.11,0,0,1-2.57,7.32C73,69.56,70.45,70.44,67.23,70.44Zm.5-30a4.41,4.41,0,0,0-3.42,1.18,5.07,5.07,0,0,0-1.08,3.51V60.75a5,5,0,0,0,1.09,3.52,4.42,4.42,0,0,0,3.41,1.18,4.44,4.44,0,0,0,3.41-1.18,5.1,5.1,0,0,0,1.09-3.52V45.09a5.12,5.12,0,0,0-1.08-3.51A4.44,4.44,0,0,0,67.73,40.4Z"/><path class="cls-2" d="M67.23,35.9q4.67,0,7.08,2.48t2.42,7V60.49a9.55,9.55,0,0,1-2.43,7c-1.62,1.66-4,2.48-7.07,2.48s-5.48-.83-7.09-2.49a9.59,9.59,0,0,1-2.41-7V45.36a9.53,9.53,0,0,1,2.42-7q2.43-2.49,7.08-2.49M67.73,66a4.9,4.9,0,0,0,3.78-1.34,5.57,5.57,0,0,0,1.22-3.86V45.09a5.59,5.59,0,0,0-1.21-3.85,4.88,4.88,0,0,0-3.79-1.34,4.89,4.89,0,0,0-3.8,1.34,5.58,5.58,0,0,0-1.2,3.85V60.75A5.52,5.52,0,0,0,64,64.61,4.87,4.87,0,0,0,67.73,66m-.5-31.05c-3.37,0-6,.94-7.79,2.79a10.54,10.54,0,0,0-2.71,7.67V60.49a10.56,10.56,0,0,0,2.69,7.65c1.8,1.86,4.43,2.8,7.81,2.8s6-.93,7.78-2.78a10.55,10.55,0,0,0,2.72-7.67V45.36A10.57,10.57,0,0,0,75,37.68c-1.8-1.84-4.43-2.78-7.8-2.78ZM67.73,65a4,4,0,0,1-3-1,4.63,4.63,0,0,1-1-3.18V45.09a4.65,4.65,0,0,1,1-3.18,4,4,0,0,1,3-1,4,4,0,0,1,3,1,4.6,4.6,0,0,1,1,3.18V60.75a4.65,4.65,0,0,1-1,3.18,4,4,0,0,1-3,1Z"/><polygon class="cls-2" points="23.23 20.85 29.23 20.85 29.23 67.55 23.23 70.56 23.23 20.85"/><path class="cls-2" d="M28.73,21.35v45.9l-5,2.5V21.35h5m1-1h-7v51l1.44-.72,5-2.51.56-.28V20.35Z"/><rect class="cls-2" x="23.23" y="20.85" width="60" height="5"/><path class="cls-2" d="M82.73,21.35v4h-59v-4h59m1-1h-61v6h61v-6Z"/><polygon class="cls-2" points="82.23 13.44 102.04 23.35 82.23 33.26 82.23 13.44"/><path class="cls-2" d="M82.73,14.25l18.19,9.1-18.19,9.1V14.25m-1-1.62V34.07l1.44-.73,18.2-9.09,1.79-.9-1.79-.89-18.2-9.1-1.44-.73Z"/><polygon class="cls-2" points="88.23 83.85 88.23 37.1 94.23 34.15 94.23 83.85 88.23 83.85"/><path class="cls-2" d="M93.73,35v48.4h-5V37.41l5-2.46m1-1.6-1.45.7-5,2.46-.55.28V84.35h7v-51Z"/><rect class="cls-2" x="34.23" y="78.85" width="60" height="5"/><path class="cls-2" d="M93.73,79.35v4h-59v-4h59m1-1h-61v6h61v-6Z"/><polygon class="cls-2" points="14.41 81.36 34.23 71.46 34.23 91.27 14.41 81.36"/><path class="cls-2" d="M33.73,72.27V90.46l-18.2-9.1,18.2-9.09m1-1.62-1.45.72-18.2,9.1-1.79.89,1.79.9,18.2,9.1,1.45.72V70.65Z"/></g></g></svg>